HIERARCHY
ROOT SpineBase
{
  OFFSET 0.000000 0.000000 0.000000
  CHANNELS 6 Xposition Yposition Zposition Zrotation Xrotation Yrotation
  JOINT SpineMid
  {
    OFFSET 0.000000 29.980525 0.000000
    CHANNELS 3 Zrotation Xrotation Yrotation
    JOINT SpineShoulder
    {
      OFFSET -0.044756 22.224219 -0.688684
      CHANNELS 3 Zrotation Xrotation Yrotation
      JOINT Neck
      {
        OFFSET -0.022741 7.337536 -0.540096
        CHANNELS 3 Zrotation Xrotation Yrotation
        JOINT Head
        {
          OFFSET -3.210302 12.818528 -1.300240
          CHANNELS 3 Zrotation Xrotation Yrotation
          End Site
          {
            OFFSET 0 0 0
          }
        }
      }
      JOINT ShoulderLeft
      {
        OFFSET -16.645140 -2.878955 5.875282
        CHANNELS 3 Zrotation Xrotation Yrotation
        JOINT ElbowLeft
        {
          OFFSET -3.665947 -22.620401 3.929862
          CHANNELS 3 Zrotation Xrotation Yrotation
          JOINT WristLeft
          {
            OFFSET 3.110264 -11.302655 -26.123911
            CHANNELS 3 Zrotation Xrotation Yrotation
            JOINT HandLeft
            {
              OFFSET -0.167071 -4.003798 -0.187725
              CHANNELS 3 Zrotation Xrotation Yrotation
              JOINT HandTipLeft
              {
                OFFSET -2.136988 -5.548747 -2.030433
                CHANNELS 3 Zrotation Xrotation Yrotation
                End Site
                {
                  OFFSET 0 0 0
                }
              }
              JOINT ThumbLeft
              {
                OFFSET -5.594395 1.325332 -3.148582
                CHANNELS 3 Zrotation Xrotation Yrotation
                End Site
                {
                  OFFSET 0 0 0
                }
              }
            }
          }
        }
      }
      JOINT ShoulderRight
      {
        OFFSET 14.623933 -3.142675 -6.861820
        CHANNELS 3 Zrotation Xrotation Yrotation
        JOINT ElbowRight
        {
          OFFSET 8.353796 -22.069351 -2.726601
          CHANNELS 3 Zrotation Xrotation Yrotation
          JOINT WristRight
          {
            OFFSET -15.611795 -16.451568 -7.655035
            CHANNELS 3 Zrotation Xrotation Yrotation
            JOINT HandRight
            {
              OFFSET -5.524175 -4.103668 3.777809
              CHANNELS 3 Zrotation Xrotation Yrotation
              JOINT HandTipRight
              {
                OFFSET -4.074354 -1.771980 -0.685190
                CHANNELS 3 Zrotation Xrotation Yrotation
                End Site
                {
                  OFFSET 0 0 0
                }
              }
              JOINT ThumbRight
              {
                OFFSET -6.190265 4.919121 -6.311144
                CHANNELS 3 Zrotation Xrotation Yrotation
                End Site
                {
                  OFFSET 0 0 0
                }
              }
            }
          }
        }
      }
    }
  }
  JOINT HipLeft
  {
    OFFSET -6.422272 0.140237 -1.261777
    CHANNELS 3 Zrotation Xrotation Yrotation
    JOINT KneeLeft
    {
      OFFSET 0.066814 -38.079925 7.683381
      CHANNELS 3 Zrotation Xrotation Yrotation
      JOINT AnkleLeft
      {
        OFFSET 4.991118 -35.140667 8.460660
        CHANNELS 3 Zrotation Xrotation Yrotation
        JOINT FootLeft
        {
          OFFSET -2.240675 -7.146661 -8.442116
          CHANNELS 3 Zrotation Xrotation Yrotation
          End Site
          {
            OFFSET 0 0 0
          }
        }
      }
    }
  }
  JOINT HipRight
  {
    OFFSET 6.365299 0.942178 -5.870802
    CHANNELS 3 Zrotation Xrotation Yrotation
    JOINT KneeRight
    {
      OFFSET 6.177601 -39.618535 -1.089350
      CHANNELS 3 Zrotation Xrotation Yrotation
      JOINT AnkleRight
      {
        OFFSET 4.423115 -35.674058 2.394862
        CHANNELS 3 Zrotation Xrotation Yrotation
        JOINT FootRight
        {
          OFFSET -2.526678 -7.529279 -6.316167
          CHANNELS 3 Zrotation Xrotation Yrotation
          End Site
          {
            OFFSET 0 0 0
          }
        }
      }
    }
  }
}
MOTION
Frames: 5
Frame Time: 0.033333
8.137717 81.988744 372.713171 -6.338905 -12.484046 13.698734 -0.825560 0.468968 -14.522320 0.395067 1.299788 -0.249362 -4.613126 0.497258 -2.809520 0.000000 0.000000 0.000000 -2.489854 0.812790 0.863273 4.917032 -19.506986 1.363440 57.273663 24.425664 -31.383455 -36.271754 17.537016 -14.821932 0.000000 0.000000 0.000000 0.000000 0.000000 0.000000 -9.670293 33.361910 17.081174 27.147150 9.682347 -44.780932 15.282067 18.355609 -42.879647 1.946028 -41.497599 20.115798 0.000000 0.000000 0.000000 0.000000 0.000000 0.000000 7.855442 7.810560 -15.154801 -4.213816 -4.311661 -2.126322 7.880162 -10.159895 4.901778 0.000000 0.000000 0.000000 -0.109683 8.738060 -14.076915 9.619923 -2.147138 -0.613928 -0.175931 23.485316 -5.592578 0.000000 0.000000 0.000000
8.256291 82.110807 372.232590 -6.423483 -12.059037 14.126657 -1.142526 0.412082 -14.926061 0.405900 1.556787 -0.243809 -3.634718 -0.668668 -3.104103 0.000000 0.000000 0.000000 -1.992068 0.369000 0.802863 4.702437 -19.768056 1.791527 52.424299 29.483651 -30.799703 -29.017886 16.613060 -15.825952 0.000000 0.000000 0.000000 0.000000 0.000000 0.000000 -9.226475 33.958596 17.516015 29.693347 5.369516 -44.101882 -1.173693 9.944916 -44.760261 9.331842 -29.130129 30.008286 0.000000 0.000000 0.000000 0.000000 0.000000 0.000000 8.003209 7.436717 -15.540411 -4.485914 -4.853624 -2.272918 8.363841 -10.597216 4.959717 0.000000 0.000000 0.000000 -0.040727 7.755876 -14.664909 8.719058 -1.748162 -0.617567 -4.573114 33.740988 -3.269960 0.000000 0.000000 0.000000
8.353872 82.228498 371.845896 -6.379148 -11.157492 14.453667 -1.384691 0.326660 -15.199070 0.309652 1.630099 -0.237038 -3.319813 -2.891218 -3.702496 0.000000 0.000000 0.000000 -1.564229 -0.571360 0.740994 4.493971 -19.630084 2.094311 47.350828 36.119161 -30.141279 -22.381477 13.569788 -15.878724 0.000000 0.000000 0.000000 0.000000 0.000000 0.000000 -8.768142 34.671244 18.048023 31.181625 2.401816 -44.154928 -6.669780 6.242668 -42.028767 10.732184 -24.208739 30.288001 0.000000 0.000000 0.000000 0.000000 0.000000 0.000000 7.930744 6.566430 -15.730338 -4.867576 -5.248512 -2.424347 8.353076 -10.104233 5.264229 0.000000 0.000000 0.000000 -1.767643 5.632930 -15.118329 11.168191 0.988146 -0.447659 -9.168228 34.646437 -0.788066 0.000000 0.000000 0.000000
8.431523 82.334282 371.548054 -6.439134 -10.956046 15.113050 -1.237600 0.440130 -15.855717 0.221099 1.599977 -0.233266 -3.273447 -3.342991 -3.792961 0.000000 0.000000 0.000000 -1.314427 -0.933244 0.737456 4.218510 -19.749543 2.277781 38.001929 41.892153 -25.895117 -11.451256 10.001733 -14.896505 0.000000 0.000000 0.000000 0.000000 0.000000 0.000000 -8.341091 36.460269 18.849257 29.764875 -0.274539 -43.373813 -7.427638 6.471758 -42.885381 10.637127 -23.108536 29.707047 0.000000 0.000000 0.000000 0.000000 0.000000 0.000000 8.369812 6.390489 -16.353573 -5.551572 -5.819661 -2.663927 10.203980 -15.191878 6.244023 0.000000 0.000000 0.000000 -2.614830 4.401449 -15.972512 12.064792 3.241372 -0.351222 -9.198357 32.502120 -0.906873 0.000000 0.000000 0.000000
8.523927 82.451815 371.274698 -6.447203 -10.520400 15.259303 -0.962414 1.017576 -15.948995 0.179239 1.386888 -0.240824 -3.769685 -4.997453 -4.218555 0.000000 0.000000 0.000000 -1.230838 -2.064588 0.698493 3.965012 -19.906941 2.548746 28.087501 41.569573 -19.630175 -4.847580 11.750216 -13.534978 0.000000 0.000000 0.000000 0.000000 0.000000 0.000000 -7.812663 38.434370 19.811416 25.346598 -3.055505 -41.884003 -3.717248 10.124379 -46.320456 7.386039 -25.740709 26.342468 0.000000 0.000000 0.000000 0.000000 0.000000 0.000000 8.425250 5.658340 -16.414304 -6.108788 -5.623000 -2.776175 8.771396 -9.459763 5.689880 0.000000 0.000000 0.000000 -3.176756 3.401267 -16.253904 12.065151 4.428084 -0.293858 -11.514440 40.917574 -0.544695 0.000000 0.000000 0.000000
